<svg xmlns="http://www.w3.org/2000/svg" xmlns:xlink="http://www.w3.org/1999/xlink" viewBox="0,0,256,256" width="50px" height="50px"><g fill="#ffffff" fill-rule="nonzero" stroke="none" stroke-width="1" stroke-linecap="butt" stroke-linejoin="miter" stroke-miterlimit="10" stroke-dasharray="" stroke-dashoffset="0" font-family="none" font-weight="none" font-size="none" text-anchor="none" style="mix-blend-mode: normal"><g transform="scale(5.12,5.12)"><path d="M12,3c-4.95852,0 -9,4.04148 -9,9v26c0,4.95852 4.04148,9 9,9h26c4.95852,0 9,-4.04148 9,-9v-26c0,-4.95852 -4.04148,-9 -9,-9zM12,5h26c3.87748,0 7,3.12252 7,7v26c0,3.87748 -3.12252,7 -7,7h-26c-3.87748,0 -7,-3.12252 -7,-7v-26c0,-3.87748 3.12252,-7 7,-7zM15.72266,10c-0.47063,0.00048 -0.87725,0.32903 -0.97656,0.78906l-3.86719,18c-0.06368,0.29528 0.00951,0.60352 0.19913,0.83865c0.18962,0.23513 0.47536,0.37196 0.77743,0.37228h4.26953c0.46945,-0.00008 0.87567,-0.32667 0.97656,-0.78516l1.37109,-6.2168h2.06641c0.93857,0 1.12162,0.15567 1.35938,0.73047c0.23775,0.5748 0.30464,1.76575 0.10156,3.40625c0,0.00065 0,0.0013 0,0.00195c-0.08301,0.67518 -0.04565,1.21257 0.02148,1.59766c0.00189,0.01087 0.00582,0.01661 0.00781,0.02734c-0.08701,0.35301 0.02442,0.72544 0.29102,0.97266l3.36914,3.11523l-2.59961,5.73828c-0.17928,0.39917 -0.07824,0.86854 0.2494,1.15859c0.32765,0.29005 0.80581,0.33341 1.18029,0.10704l5.58008,-3.39258l4.28711,3.32812c0.32907,0.25595 0.78239,0.28093 1.13759,0.06269c0.3552,-0.21825 0.53775,-0.63394 0.45811,-1.04315l-1.08203,-5.55859l4.69336,-3.4707c0.3474,-0.25647 0.49096,-0.70696 0.356,-1.11714c-0.13495,-0.41019 -0.51794,-0.68744 -0.94975,-0.68754h-4.86328l-0.81641,-5.13281c-0.07708,-0.48098 -0.48947,-0.83647 -0.97656,-0.8418c-0.36751,-0.00472 -0.70799,0.19252 -0.88672,0.51367l-2.77148,4.99414c-0.05945,-0.58366 -0.07276,-1.46687 0.06445,-2.82812c0.14996,-1.48015 0.01153,-2.64212 -0.17578,-3.44727c-0.06472,-0.27821 -0.08797,-0.25707 -0.1582,-0.45703c0.30953,-0.16881 0.4071,-0.12368 0.77734,-0.49414c0.80123,-0.8017 1.59269,-2.17766 1.74609,-4.26367c0.16685,-2.25694 -0.55443,-3.97513 -1.91992,-4.9043c-1.36549,-0.92917 -3.11226,-1.11328 -5.01953,-1.11328zM16.53125,12h7.46875c1.75072,0 3.12607,0.246 3.89258,0.76758c0.76651,0.52158 1.18788,1.27545 1.05273,3.10352c-0.12259,1.66698 -0.68375,2.51354 -1.16602,2.99609c-0.48227,0.48255 -0.81641,0.56055 -0.81641,0.56055c-0.29239,0.08332 -0.531,0.29512 -0.64842,0.57556c-0.11742,0.28044 -0.1009,0.59906 0.0449,0.86585c0,0 0.12468,0.21055 0.26563,0.81641c0.14094,0.60585 0.2618,1.53717 0.13477,2.79102c0,0.00065 0,0.0013 0,0.00195c-0.16595,1.64468 -0.13078,2.71359 -0.01172,3.52148h-2.75977c-0.01123,-0.18645 -0.03807,-0.32494 -0.00195,-0.61914c0.21992,-1.7765 0.25651,-3.21506 -0.24023,-4.41602c-0.49675,-1.20095 -1.7546,-1.9668 -3.20703,-1.9668h-2.86914c-0.46945,0.00008 -0.87567,0.32667 -0.97656,0.78516l-1.37109,6.2168h-2.22852zM19.29297,13.03125c-0.47687,0.00017 -0.88729,0.33701 -0.98047,0.80469l-0.98047,4.9375c-0.05844,0.29363 0.01774,0.598 0.20762,0.82948c0.18987,0.23148 0.47346,0.36572 0.77285,0.36584h4.4707c0.78511,0 1.65108,-0.11947 2.44141,-0.57617c0.79033,-0.4567 1.44967,-1.30249 1.67773,-2.41406c0.23365,-1.14113 -0.07155,-2.21802 -0.72266,-2.91797c-0.65111,-0.69995 -1.56488,-1.0293 -2.47461,-1.0293zM20.11328,15.03125h3.5918c0.41827,0 0.79437,0.15907 1.00977,0.39063c0.21539,0.23155 0.35492,0.52938 0.22656,1.15625c-0.12912,0.62555 -0.36486,0.87866 -0.7168,1.08203c-0.35267,0.2038 -0.87951,0.30859 -1.44141,0.30859h-3.25391zM31.80078,26.01953l0.49609,3.11328c0.07769,0.4846 0.49554,0.84123 0.98633,0.8418h2.68555l-2.76367,2.04297c-0.31035,0.22876 -0.46157,0.61554 -0.38867,0.99414l0.69336,3.56445l-2.72656,-2.11719c-0.3277,-0.25434 -0.77838,-0.27998 -1.13281,-0.06445l-3.4043,2.07031l1.5625,-3.44531c0.17837,-0.39287 0.08467,-0.85584 -0.23242,-1.14844l-2.02148,-1.87109h2.49609h0.94922c0.36332,0.00042 0.69829,-0.19622 0.875,-0.51367z"></path></g></g></svg>